<?xml version="1.0" encoding="utf-8"?>
<!-- Generator: Adobe Illustrator 25.0.0, SVG Export Plug-In . SVG Version: 6.00 Build 0)  -->
<svg version="1.1" id="레이어_1" xmlns="http://www.w3.org/2000/svg" xmlns:xlink="http://www.w3.org/1999/xlink" x="0px"
	 y="0px" viewBox="0 0 35 35" style="enable-background:new 0 0 35 35;" xml:space="preserve">
<style type="text/css">
	.st0{fill:#FF6529;stroke:#222222;stroke-width:2;stroke-linejoin:round;stroke-miterlimit:10;}
	.st1{fill:none;stroke:#222222;stroke-width:2;stroke-linejoin:round;stroke-miterlimit:10;}
</style>
<g>
	<path class="st0" d="M21.71,18.86l6.94,1.07c0.47,0.07,0.66,0.66,0.31,0.99l-5.07,4.85c-0.14,0.13-0.2,0.32-0.17,0.51l1.12,6.93
		c0.08,0.47-0.42,0.83-0.84,0.6l-6.18-3.33c-0.17-0.09-0.37-0.09-0.54-0.01l-6.25,3.21c-0.43,0.22-0.92-0.15-0.83-0.62l1.25-6.91
		c0.03-0.19-0.03-0.38-0.16-0.51L6.3,20.71c-0.34-0.34-0.15-0.92,0.33-0.98l6.96-0.94c0.19-0.03,0.35-0.14,0.44-0.31l3.17-6.27
		c0.22-0.43,0.83-0.42,1.04,0.01l3.05,6.32C21.36,18.71,21.52,18.83,21.71,18.86z"/>
	<g>
		<path class="st1" d="M27.63,1.89v10h-20v-10C7.63,1.89,25.79,2.11,27.63,1.89z"/>
		<g>
			<line class="st1" x1="13.4" y1="2.42" x2="13.4" y2="11.89"/>
			<line class="st1" x1="21.87" y1="2.42" x2="21.87" y2="11.89"/>
		</g>
	</g>
</g>
</svg>
