<?xml version="1.0" encoding="utf-8"?>
<!-- Generator: Adobe Illustrator 25.0.0, SVG Export Plug-In . SVG Version: 6.00 Build 0)  -->
<svg version="1.1" id="레이어_1" xmlns="http://www.w3.org/2000/svg" xmlns:xlink="http://www.w3.org/1999/xlink" x="0px"
	 y="0px" viewBox="0 0 40 40" style="enable-background:new 0 0 40 40;" xml:space="preserve">
<style type="text/css">
	.st0{fill:#FF6529;}
	.st1{opacity:0.8;}
	.st2{fill:#FFFFFF;}
	.st3{opacity:0.6;fill:#FFFFFF;}
</style>
<circle class="st0" cx="19.54" cy="19.78" r="18.5"/>
<g class="st1">
	<path class="st2" d="M15.56,19.69h-1.86v5.47h-1.39v-5.47h-1.86v-1.05h5.11V19.69z"/>
	<path class="st2" d="M18.99,25.29c-2.22,0-2.89-1.15-2.89-3.45c0-2.1,0.61-3.34,2.9-3.34c2.3,0,2.9,1.19,2.9,3.46
		C21.9,24.2,21.17,25.29,18.99,25.29z M20.47,21.96c0-1.79-0.44-2.36-1.47-2.36c-0.96,0-1.47,0.54-1.47,2.24
		c0,1.75,0.44,2.35,1.47,2.35C19.96,24.19,20.47,23.64,20.47,21.96z"/>
	<path class="st2" d="M24.43,18.64h1.15c1.81,0,2.42,0.72,2.42,2.12c0,1.59-0.78,2.13-2.43,2.13h-1.12v2.28h-1.36V19.9
		C23.09,18.96,23.5,18.64,24.43,18.64z M24.89,19.68c-0.35,0-0.44,0.14-0.44,0.42v1.72h0.99c0.79,0,1.17-0.3,1.17-1.07
		c0-0.79-0.39-1.07-1.16-1.07H24.89z"/>
</g>
<path class="st3" d="M22.11,14.79l-2.89-3.32l-2.89,3.32c-0.18,0.22-0.51,0.25-0.73,0.07l0,0c-0.22-0.18-0.25-0.51-0.07-0.73
	l3.29-3.8c0.21-0.25,0.59-0.25,0.8,0l3.29,3.8c0.18,0.22,0.15,0.55-0.07,0.73v0C22.62,15.05,22.29,15.01,22.11,14.79z"/>
</svg>
