<?xml version="1.0" encoding="utf-8"?>
<!-- Generator: Adobe Illustrator 27.9.1, SVG Export Plug-In . SVG Version: 6.00 Build 0)  -->
<svg version="1.1" id="레이어_1" xmlns="http://www.w3.org/2000/svg" xmlns:xlink="http://www.w3.org/1999/xlink" x="0px"
	 y="0px" viewBox="0 0 595.28 841.89" style="enable-background:new 0 0 595.28 841.89;" xml:space="preserve">
<style type="text/css">
	.st0{fill:#D8211D;}
	.st1{fill:#FFFFFF;}
</style>
<g>
	<path class="st0" d="M51.47,411.86c8.16,2.55,14.09,5.83,17.79,9.83c3.7,4,5.55,9.19,5.55,15.57c0,6.87-2.37,12.45-7.12,16.74
		c-4.75,4.29-11.3,6.43-19.68,6.43c-3.63,0-7.15-0.39-10.57-1.17c-3.42-0.78-6.28-1.73-8.58-2.87c-2.3-1.13-4.34-2.28-6.12-3.45
		c-1.78-1.17-3.09-2.14-3.93-2.92l-1.26-1.17l9.21-12.43c0.7,0.57,1.67,1.28,2.93,2.13s3.68,2,7.27,3.45
		c3.59,1.45,6.99,2.18,10.21,2.18c6.07,0,9.11-1.84,9.11-5.53c0-1.91-0.99-3.63-2.98-5.15c-1.99-1.52-5.81-3.2-11.46-5.05
		c-14.44-4.68-21.67-12.72-21.67-24.12c0-6.87,2.25-12.4,6.75-16.58c4.5-4.18,10.8-6.27,18.89-6.27c3.07,0,6.11,0.27,9.11,0.8
		c3,0.53,5.53,1.19,7.59,1.97c2.06,0.78,3.91,1.58,5.55,2.39c1.64,0.81,2.84,1.47,3.61,1.97l1.15,0.85l-7.75,13.71
		c-0.63-0.43-1.48-0.94-2.56-1.54c-1.08-0.6-3.16-1.4-6.23-2.39c-3.07-0.99-6-1.49-8.79-1.49c-5.93,0-8.9,1.77-8.9,5.31
		c0,1.56,0.94,3.03,2.83,4.41C43.31,408.83,46.66,410.3,51.47,411.86z"/>
	<path class="st0" d="M102.05,383.22v75.45H82.18v-75.45H102.05z"/>
	<path class="st0" d="M130.85,458.72h-17.5l0.88-75.55h24.65l11.16,41.02c1.34,5.74,2.23,9.85,2.66,12.33h0.32
		c0.5-3.9,1.31-8,2.44-12.33l11.16-41.02h24.55l-0.39,75.55h-15.58l-0.6-35.71c-0.14-3.97,1.23-9.07,1.38-15.3h-0.32l-13.92,51.01
		h-18.28l-13.6-51.01h-0.32c0.14,6.31,1.76,13.16,1.62,17.06L130.85,458.72z"/>
	<path class="st0" d="M221.28,458.67h-19.13v-75.45h29.22c19.48,0,29.22,8.22,29.22,24.65c0,8.36-2.36,14.63-7.07,18.81
		c-4.71,4.18-12.1,6.27-22.16,6.27h-10.1V458.67z M221.28,399.05v18.7h10.1c3.19,0,5.65-0.83,7.39-2.5c1.73-1.66,2.6-3.98,2.6-6.96
		c0-2.9-0.87-5.17-2.6-6.8c-1.74-1.63-4.2-2.44-7.39-2.44H221.28z"/>
	<path class="st0" d="M318.16,458.72h-47.93v-75.55h19.87v58.34h28.05V458.72z"/>
	<path class="st0" d="M378.72,458.67h-52.71v-75.45h50.9v16.05h-31.24v12.22h26.67v15.73h-26.67v15.41h33.05V458.67z"/>
</g>
<g>
	<path class="st1" d="M423.51,458.67h-19.13v-75.45h29.22c19.48,0,29.22,8.22,29.22,24.65c0,8.36-2.36,14.63-7.07,18.81
		c-4.71,4.18-12.1,6.27-22.16,6.27h-10.09V458.67z M423.51,399.05v18.7h10.09c3.19,0,5.65-0.83,7.39-2.5
		c1.73-1.66,2.6-3.98,2.6-6.96c0-2.9-0.87-5.17-2.6-6.8c-1.74-1.63-4.2-2.44-7.39-2.44H423.51z"/>
	<path class="st1" d="M523.19,458.67h-19.98l-4.46-17h-20.51l-4.36,17h-19.98l21.57-75.45h26.14L523.19,458.67z M486.21,409.68
		l-4.57,17.11h13.6l-4.57-17.11c-0.85-3.75-1.52-7.26-2.02-10.52h-0.32C487.98,401.43,487.27,404.94,486.21,409.68z"/>
	<path class="st1" d="M535.1,433.64l-22.85-50.48h21.04l8.71,21.36c1.34,3.68,2.3,6.63,2.87,8.82h0.32
		c0.92-3.47,1.84-6.41,2.76-8.82l8.82-21.36h20.93L555.3,432.9v25.82H535.1V433.64z"/>
</g>
</svg>
